<?xml version="1.0" encoding="UTF-8"?>
<svg id="Layer_1" xmlns="http://www.w3.org/2000/svg" version="1.1" viewBox="0 0 95.65 97.33">
  <!-- Generator: Adobe Illustrator 30.2.1, SVG Export Plug-In . SVG Version: 2.1.1 Build 1)  -->
  <defs>
    <style>
      .st0 {
        fill: #807f83;
      }

      .st1 {
        fill: #569bbe;
      }

      .st2 {
        fill: #afbd22;
      }

      .st3 {
        fill: #e4a90d;
      }
    </style>
  </defs>
  <path class="st0" d="M82.94,29.9c-2.47-1.51-4.3-3.84-6.46-5.63-.6-.5-.73-.82-1.6-1.1-.51-.16-1.05-.23-1.62-.23-.68,0-1.4.11-2.12.27-2.1.49-4.27,1.53-5.95,2.16-.82-2.12-1.39-4.45-2.83-6.25-.05-.07-.1-.14-.16-.2-2.03-2.37-4.82-1.95-7.62-2.28-1.12-.13-2.2-.35-3.26-.62-1.2-.31-2.38-.7-3.56-1.16l.48.59c.58.53,1.18,1.01,1.8,1.47,1.11.81,2.3,1.51,3.62,1.97,1,.35,2,.54,2.95.83,1.12.34,2.15.83,2.95,1.92.89,1.2,1.3,2.77,1.71,4.18.02.23-.58.84-.66,1.31-.32,1.86,2.13,3.46,4.14,3.46.9,0,1.72-.32,2.15-1.09.13-.22.2-.66.33-.83.28-.36,3.19-1.6,3.76-1.76.68-.19,1.27-.27,1.78-.27.37,0,.7.06,1.01.13,1.57.39,2.58,1.62,4.41,2.68,2.1,1.21,4.55,1.78,6.98,1.8l-2.25-1.35Z"/>
  <path class="st0" d="M90.07,19.27c-1.56-1.35-2.57-3.19-3.87-4.7-.36-.42-.41-.66-1-.96-1.95-1-5.01.01-7.05.41-.34-1.64-.46-3.41-1.34-4.88-1.15-1.9-3.15-1.93-5.07-2.49-1.64-.47-3.11-1.18-4.57-2.05l.26.47c.95,1.22,2.03,2.3,3.4,3.05,1.44.79,3.01,1.03,3.82,2.61.48.94.59,2.09.71,3.13-.01.16-.5.52-.61.84-.64,1.83,2.86,3.97,4.13,2.4.11-.14.22-.44.33-.54.24-.22,2.43-.75,2.84-.8,2.65-.29,3.03,1.21,4.76,2.62,1.33,1.09,2.98,1.78,4.68,2.08l-1.42-1.21Z"/>
  <g>
    <path class="st2" d="M44.43,45.7c-.62-.33-1.21-.67-1.78-1.03-.04-.02-.08-.05-.11-.07-.18-.11-.34-.23-.51-.34-.39-.25-.77-.51-1.13-.78-.21-.15-.4-.31-.6-.47-.32-.25-.63-.5-.93-.76-.2-.17-.39-.34-.57-.52-.28-.26-.55-.53-.82-.8-.17-.18-.35-.36-.52-.55-.26-.28-.5-.57-.74-.87-.15-.18-.3-.36-.44-.55-.25-.33-.47-.66-.7-1-.09-.14-.19-.28-.28-.42-.02-.04-.05-.08-.07-.12-.3-.48-.58-.97-.83-1.47-.02-.04-.04-.08-.06-.12-.25-.49-.47-1-.68-1.51,0-.02-.02-.04-.03-.06-.07-.17-.13-.35-.19-.52-.14-.38-.28-.76-.4-1.15-.07-.22-.13-.45-.19-.68-.1-.36-.2-.73-.28-1.1-.05-.24-.1-.49-.15-.73-.07-.37-.14-.74-.19-1.12-.04-.25-.07-.5-.11-.76-.05-.39-.08-.79-.12-1.19-.02-.25-.04-.49-.06-.74-.02-.44-.03-.89-.04-1.34,0-.19-.01-.37-.01-.56,0-.05,0-.1,0-.16,0-.62.02-1.26.06-1.9,0-.08.01-.17.02-.25.04-.64.1-1.28.17-1.93,0-.06.01-.12.02-.17.08-.67.17-1.35.28-2.04.32-2.03.77-4.13,1.35-6.3,3.04-11.39-3.96-6.3-3.96-6.3-6.14,4.85-10.67,17.98-6.65,29.99,2.97,8.86,15.32,10.98,20.19,11.21.01,0,.02,0,.03,0,.3.01.57.02.81.02.2.05.34-.14.39-.35.05-.19,0-.41-.17-.5Z"/>
    <path class="st2" d="M24.31,40.63c-.44-.34-.85-.69-1.24-1.05-.05-.05-.1-.09-.15-.14-.09-.08-.17-.16-.26-.24-.25-.24-.5-.47-.73-.71-.02-.02-.05-.05-.07-.07-.12-.13-.24-.26-.35-.38-.21-.23-.42-.46-.61-.7-.12-.15-.24-.3-.36-.45-.18-.23-.35-.47-.52-.71-.1-.15-.21-.3-.3-.45,0,0,0,0,0,0-.16-.25-.31-.5-.46-.76-.07-.12-.14-.23-.2-.35-.01-.03-.03-.05-.04-.08-.16-.31-.31-.63-.45-.94-.03-.08-.08-.15-.11-.23-.16-.39-.31-.78-.43-1.18-.01-.04-.03-.09-.04-.13-.03-.08-.04-.16-.07-.25-.08-.28-.16-.56-.22-.85,0-.02-.01-.05-.02-.07-.03-.14-.05-.28-.08-.42-.05-.26-.09-.52-.13-.79-.02-.17-.04-.33-.05-.5-.02-.26-.04-.52-.05-.78,0-.17-.01-.34-.01-.5,0-.27,0-.54.02-.82,0-.16.01-.32.02-.48.02-.31.06-.63.1-.94.02-.12.02-.24.04-.36.07-.44.15-.88.24-1.32.02-.09.05-.19.07-.29.31-1.34.76-2.69,1.34-4.08,2.44-5.82-2.2-4.24-2.2-4.24-4.09,1.6-7.55,8.13-5.58,15.58,1.46,5.5,9.13,8.92,12.19,9.94.19.06.37.12.53.17,0,0,0,0,0,0,.12.06.22-.01.26-.12.04-.1.03-.23-.08-.32Z"/>
    <path class="st2" d="M46.92,16.52l-.48-.59c-.48-.6-.5-1.45-.05-2.07.33-.45.84-.7,1.37-.7.2,0,.41.04.61.11,1.84.71,3.48,1.18,5.05,1.47,6.01-3.3,10.65-3.44,9.44-8.27-2.42-9.68-14.1-7.41-19.87-.37-8.12,9.9-10.25,22.46-6.11,29.72,3.81,6.68,9.04,9.91,11.3,11.06.06.03.13.03.19.01.06-.02.12-.06.16-.12.07-.11.07-.26-.06-.34-7.55-5.08-7.02-14.67-3.77-22.1.05-.11.1-.23.15-.34,0-.02.02-.03.02-.05,1.1-2.34,2.47-4.37,3.88-5.85-.55-.42-1.11-.88-1.67-1.39-.06-.06-.12-.12-.18-.19Z"/>
    <path class="st2" d="M9.97,34.12c-1.76-2.83-.92-5.33-1.06-6.53-.03-.25-.44-1.7-1.77-.9-.56.34-1.33,1.2-1.41,2.6-.03.49.32,1.6.53,2.25.07.22-.09.44-.32.43-1.09-.06-3.74.16-5.41,3.49-1.63,3.26,1,8,1.22,8.29-1.23,1.58.16,5.18.91,6.83.07.15.21.2.34.18.13,0,.25-.06.29-.21.52-2.06,1.47-3.55,2.61-4.64.07-.07.14-.14.22-.21.21-.18.42-.35.63-.51.16-.12.33-.23.49-.34.06-.04.11-.07.17-.1.31-.19.62-.36.94-.52.12-.06.23-.11.35-.17.13-.06.26-.12.39-.17,2-.81,3.99-1.01,5.18-1.23,2.51-.28,4.48-.2,4.66-.65.91-2.29-4.89-1.36-8.96-7.89Z"/>
  </g>
  <g>
    <path class="st3" d="M74.81,29.16c-.76-.54-1.29-.82-2.02-.82-.38,0-.82.07-1.32.21-.42.12-2.1.85-2.84,1.24-.06.17-.13.36-.24.55-.7,1.24-2.03,1.96-3.63,1.96-1.78,0-3.74-.89-4.85-2.22-.81-.97-1.16-2.11-.97-3.24.08-.48.3-.89.51-1.22-.32-1.1-.67-2.2-1.25-2.98-.7-.94-1.63-1.21-3.22-1.61-.3-.08-.6-.15-.91-.24-4.53,2.46-7.61,7.26-7.61,12.77,0,8.02,6.5,14.52,14.52,14.52s14.52-6.5,14.52-14.52c0-1.54-.24-3.02-.69-4.41Z"/>
    <path class="st3" d="M69.56,21.88c-1.45-1.06-3.09-1.86-4.88-2.33.64,1.16,1.09,2.39,1.51,3.59,1.03-.42,2.18-.89,3.37-1.26Z"/>
  </g>
  <g>
    <path class="st1" d="M80.9,33.14c-1.84.87-2.51,4.47-3.04,7.61-.51,3.01-2.77,6.77-6.94,7.78-.08.02-.1.08-.08.12-.01.01,0,.03.02.04.26.17.64.3,1.1.38,1.05.3,2.59.54,4.43.22,1.11-.19,2.56-.93,3.96-2.02.03-.03.06-.05.1-.08,2.22-1.75,3.81-4.52,4.87-7.05,2.25-5.37-1.25-8.52-4.42-7.02Z"/>
    <g>
      <path class="st1" d="M42.38,57.85c5.39,1.79,10.87,3.61,16.59,4.15,9.19.78,19.68-2.8,26.7-7.91,3.02-2.21,5.33-4.68,7.09-6.91,1.46-1.84,2.47-3.52,2.65-4,.26-.71.25-1.36.19-1.81-.34-2.47-.88-4.92-1.63-7.31-1.47-4.72-4.52,25.59-37.47,21.84-12.99-1.48-29.2-16.81-42.16-10.84-3.72,1.72-6.23,3.92-7.84,6.4-.2.3.14.67.46.5,10.22-5.22,24.1,2.58,35.43,5.88Z"/>
      <path class="st1" d="M90.78,54.5c-6.48,8.59-17.73,15.45-29.69,16.23-10.74.78-21-4.34-31.13-7.35-9.8-3.21-20.3-4.79-24.54,3.11-.19.36-.22.78-.11,1.17.7,2.31,1.65,4.55,2.66,6.59.21.42.79.46,1.06.08.44-.6.84-1.09,1.05-1.28,15.42-16.41,49.8,16.25,73.25-5.08,5.22-4.52,9.13-11.47,11.48-17.47,1.45-4.18-1.87,1.31-4.04,4.01Z"/>
      <path class="st1" d="M9.23,60.37c13.71-5.72,33.36,8.6,48.98,8.76,9.73.6,22.36-5.57,27.72-11.69,1.51-1.79-2.11.38-4.19,1.37-7.21,3.71-16.97,5.92-25.31,4.57-13.43-2.03-26.44-9.76-40.56-11.46-4.12-.39-8.07,1.06-10.97,3.6-.2.18-.34.41-.4.67-.53,2.35-.52,4.8-.15,7.25.05.35.51.47.73.19,1.07-1.38,2.46-2.54,4.15-3.28Z"/>
      <path class="st1" d="M94.99,54.46c-1.29,2.76-2.47,5.46-3.89,7.39-5.97,9.42-17.7,15.87-29.93,15.24-13.59-.39-26.71-7.27-40.07-7.06-3.23.25-6.32,1.45-8.74,3.46-.71.53-1.5,1.27-2.27,2.02-.57.54-.68,1.41-.28,2.09,1.95,3.3,3.84,5.71,4.62,6.49,18.16,18.16,48.19,17.57,67.09-1.33.75-.75,1.47-1.53,2.16-2.32.21-.23.4-.47.6-.71.5-.59.99-1.19,1.47-1.81.18-.24.37-.47.55-.71,1.23-1.65,2.35-3.36,3.35-5.12.15-.26.29-.53.44-.79.36-.65.7-1.31,1.02-1.97.13-.27.26-.53.39-.8.84-1.81,1.57-3.66,2.18-5.53.09-.28.17-.56.26-.84.21-.69.41-1.39.59-2.1.07-.28.15-.56.22-.84.23-.95.44-1.91.6-2.86,0,0,0,0,0,0,.1-.57.19-1.15.27-1.73.05-.39.22-1.95-.62-.16Z"/>
    </g>
  </g>
  <g>
    <path class="st2" d="M54.73,84.23c-.18-.36-.46-1.18-.88-1.79,0,0,0,0,0,0,0,0,0,0-.01-.01-.08-.12-.17-.22-.26-.32-.01-.01-.03-.03-.04-.04-.09-.09-.19-.17-.29-.23-.01,0-.03-.02-.04-.02-.11-.06-.22-.1-.34-.12-.01,0-.02,0-.04,0-.13-.01-.26,0-.4.04-1.29.42-2.54,2.16-3.87,4.08-1.33,1.91-2.29,2.62-1.5,4.49.09.22.17.46.24.7.02.08.04.18.06.26.04.17.08.33.11.51.02.11.03.22.05.33.02.16.04.33.06.5.01.12.02.24.03.37.11,1.37.09,2.88.19,4.36.89-.02,1.78-.07,2.67-.14-.05-1.34-.51-1.89-.66-3.11-.21-1.75.08-3.24,1.75-4.57,1.66-1.33,3.49-4.62,3.16-5.28Z"/>
    <path class="st2" d="M56.36,89.84s0,0,0,0c0-.01-.01-.02-.02-.03,0-.02-.02-.04-.03-.05-.06-.1-.14-.19-.25-.24-.96-.46-3.12.37-3.37,2.45-.25,2.05.68,2.21.58,4.92.32-.04.64-.08.96-.13.72-.11,1.44-.24,2.15-.39.22-.67.35-1.36.14-2.07-.43-1.39.24-3.56-.16-4.45Z"/>
    <path class="st2" d="M68.01,88.86s0,0,0,0c0,0,0,0,0,0,0-.11-.03-.21-.07-.3-.01-.02-.02-.05-.04-.07-.06-.09-.13-.17-.24-.23-1.33-.71-2.37-.25-3.2.91-.07.09-.15.18-.23.27-.02.02-.05.05-.07.07-.07.07-.15.14-.24.2-.02.01-.04.03-.05.04-.1.08-.21.15-.32.21-.02.01-.04.02-.06.03-.1.05-.19.1-.29.15-.93.42-1.77.32-.81-1.1.89-1.33,1.44-2.79,1.35-3.65,0,0,0,0,0,0,0,0,0,0,0-.01-.01-.12-.04-.23-.08-.32,0-.02-.02-.03-.02-.05-.04-.08-.1-.16-.17-.21,0,0,0-.01-.02-.02-.07-.06-.17-.09-.27-.11-.02,0-.05,0-.07-.01-.11-.01-.23-.01-.38.02-1.66.33-2.83.67-3.53,2.2-.71,1.54-.96,2.37-.5,3.91.46,1.54.75,2.29-.37,3.7-.37.47-.61,1.02-.75,1.6,1.11-.25,2.21-.54,3.31-.88,1.28-1.34,1.66-2.03,3.48-2.68,1.52-.54,3.65-2.57,3.67-3.69Z"/>
    <path class="st2" d="M45.15,88.88s0,0,.01,0c-.02-.02-.04-.03-.06-.05-.06-.07-.12-.12-.18-.16-.04-.03-.08-.06-.12-.08-.07-.03-.13-.04-.2-.05-.04,0-.08-.02-.13-.01-.08,0-.16.04-.24.08-.04.02-.07.02-.11.05-.12.08-.24.18-.37.32-.11.13-.2.27-.28.41-.03.05-.04.1-.06.15-.04.1-.09.2-.12.31-.02.06-.03.12-.05.18-.03.1-.05.21-.07.31-.01.06-.02.12-.03.18-.02.15-.05.31-.07.46,0,.05-.01.09-.02.14-.02.13-.03.26-.05.39-.01.08-.03.16-.04.24-.02.08-.03.17-.05.25-.08.33-.2.65-.4.93-.83,1.16-2.37,1.08-1.29-.96,1.08-2.04,1.7-4.2,2.29-6.86.58-2.66.25-3.91-1.04-4.78-.09-.06-.19-.12-.29-.18,0,0,0,.01,0,.01-1.27-.71-2.94-.73-2.59,1,.37,1.86,1.41,2.11.5,3.9-.91,1.79-1.29,1.87-1.29,4.16s-2.37,3.62-2.12,1.04c.25-2.58.21-4.32-.04-5.61-.19-.97,1.06-2.6,1.73-4.09,0,0,0,0,0,0,.06-.13.1-.25.14-.38.04-.11.09-.23.13-.34.07-.24.11-.46.12-.68.08-1.75.17-4.93-1.87-5-2.04-.07-3.49.35-3.37,1.51.02.15.06.31.13.47.02.06.06.12.09.18.05.11.1.21.17.32.05.07.1.15.15.22.07.1.13.2.2.29.07.1.15.2.22.3.07.09.14.18.21.28h0c.44.59.86,1.17.94,1.68.17,1.12-.91,2.54-1.7,1.41-.3-.42-.39-.68-.42-.95,0-.08-.01-.16-.01-.25,0-.02,0-.05,0-.07,0-.05,0-.1,0-.15,0-.02,0-.04,0-.07,0-.02,0-.04,0-.06,0-.09,0-.19,0-.29,0-.02,0-.04,0-.07,0-.12-.02-.26-.05-.41,0-.03-.01-.07-.02-.1-.03-.16-.06-.34-.11-.55-.46-1.83-2.29-1.46-2.54.46-.03.23-.03.47-.01.71,0,.08.03.17.04.25.02.16.05.33.09.49.03.1.06.21.09.31.05.15.09.3.15.45.04.11.09.23.14.34.06.14.12.29.2.43.06.12.12.24.18.36.07.14.15.28.23.42.07.12.14.24.22.37.08.13.16.26.25.39.08.13.16.25.25.37.08.12.16.24.25.36.09.13.18.26.27.38.02.03.04.06.06.09,0,0,0,0,0,0,.12.16.23.32.35.47,1.41,1.87,1.5,5.2.08,4.95-1.41-.25-1.79-1.83-1.79-3.7,0-.36,0-.66-.03-.93,0,0,0,0,0,0,0-.05,0-.09-.01-.13,0-.06,0-.12-.02-.17-.01-.1-.02-.19-.04-.28,0-.04-.01-.08-.02-.12-.02-.12-.05-.24-.09-.35,0-.02-.02-.04-.02-.06-.03-.09-.06-.17-.1-.25-.02-.03-.04-.07-.05-.1-.04-.06-.07-.13-.12-.19-.02-.03-.05-.07-.07-.1-.05-.07-.1-.13-.16-.2-.02-.03-.05-.06-.07-.09-.08-.1-.17-.19-.27-.3-.89-.91.11-4.37-1.55-6.07-.15-.16-.3-.28-.45-.38-.03-.02-.06-.04-.09-.06-.14-.09-.28-.16-.41-.2-.02,0-.05-.01-.07-.02-.13-.03-.25-.05-.37-.04-.01,0-.03,0-.04,0-.12.01-.24.05-.35.11-.02.01-.04.02-.07.04-.11.06-.21.14-.3.24-.01.01-.02.03-.03.04-.08.1-.16.22-.23.35-.01.02-.02.04-.03.06-.07.15-.13.31-.17.49,0,.03-.02.07-.02.1-.04.19-.08.39-.1.61,0,0,0,0,0,0,0,0,0,0,0,0-.03.44-.02.94.07,1.48.46,2.95-.29,3.33,1.75,5.61,2.04,2.29,2.2,5.49.12,5.03-1.84-.4-1.6-1.2-1.84-3.63,0,0,0,0,0,0,0-.01,0-.02,0-.03-.03-.31-.07-.64-.12-1-.46-3.24-1.62-6.07-2.95-5.2s-2.62,3.66-1.66,6.7c.13.4.22.79.29,1.17.03.13.04.25.06.38.04.25.08.49.1.73.01.14.02.28.03.42.01.21.02.43.03.64,0,.11,0,.22,0,.34,0,.03,0,.06,0,.09,0-.03,0-.06,0-.09.09.06.19.11.28.17.94.58,1.89,1.13,2.86,1.63.37.19.74.37,1.11.55,0,0,0,0,0,0,.02-.02.04-.06.07-.08.07-.07.14-.11.21-.13.02,0,.05,0,.08,0,.05,0,.1,0,.16.01.03.01.07.04.1.05.05.03.1.05.15.09.04.03.08.07.11.1.05.05.1.09.15.15.04.05.08.1.12.15.05.06.1.13.16.2.02.03.04.06.06.08,0,0,0,0,0,0,.18.08.37.15.55.23,1.1.47,2.21.9,3.34,1.29-.33-.82-.62-1.46-.63-2.01,0-.11,0-.22.02-.32,0,0,0,0,0-.01.02-.11.06-.21.11-.31.01-.03.03-.05.05-.08.04-.08.1-.15.16-.23.02-.03.05-.06.07-.08.09-.1.2-.19.33-.29.57-.42,1.46-.62,2.62.37,1.16,1,.12,1.66.8,3.66.04.12.05.23.07.34.62.15,1.24.29,1.86.42.06-1.48,1.12-2.57,1.88-1.22.24.42.27.97.2,1.6.69.11,1.38.2,2.08.28.25.03.51.05.76.08.07-.06.14-.11.22-.15.02-.01.04-.02.06-.03.11-.05.22-.08.34-.08.02,0,.04,0,.06,0,.13,0,.26.03.4.09.07.03.13.07.17.13.02.02.03.04.04.06.02.03.04.06.06.09.42.03.84.05,1.26.07.47.02.93.03,1.4.03.7-2.02.22-4.63-.27-6.49-.24-.91-.53-1.58-.85-1.96Z"/>
    <path class="st2" d="M68.33,91.38c-1,.74-1.54,1.29-1.94,1.78,1.51-.67,2.99-1.41,4.44-2.24-.56-.34-1.45-.31-2.49.45Z"/>
    <path class="st2" d="M17.68,84.02c-1.1-.3-1.87-.26-2.35.93.28.27.56.54.84.8.63.57,1.27,1.11,1.93,1.63.41.33.83.65,1.25.96-.02-.23-.02-.48,0-.75.12-2-.29-3.2-1.66-3.58Z"/>
  </g>
</svg>